<svg xmlns="http://www.w3.org/2000/svg" viewBox="0 0 24 24" fill="#ffffff">
  <path d="M12 .5a12 12 0 0 0-3.79 23.39c.6.11.82-.26.82-.58v-2.03c-3.34.72-4.04-1.61-4.04-1.61-.55-1.38-1.33-1.75-1.33-1.75-1.09-.75.08-.73.08-.73 1.2.08 1.84 1.24 1.84 1.24 1.08 1.83 2.81 1.3 3.5 1 .11-.77.42-1.3.76-1.6-2.67-.3-5.47-1.34-5.47-5.94 0-1.31.47-2.38 1.24-3.22-.12-.3-.54-1.52.12-3.16 0 0 1-.32 3.3 1.23a11.52 11.52 0 0 1 6 0c2.3-1.55 3.3-1.23 3.3-1.23.66 1.64.24 2.86.12 3.16.77.84 1.24 1.91 1.24 3.22 0 4.61-2.8 5.64-5.48 5.94.43.38.82 1.11.82 2.24v3.31c0 .32.22.69.83.58A12 12 0 0 0 12 .5Z"/>
</svg>
